<svg width="120pt" height="118pt" viewBox="0 0 120 118" version="1.1" xmlns="http://www.w3.org/2000/svg">
        <g id="#3a335dff">
        <path fill="#3a335d" stroke="#3a335d" stroke-width="0.09375" opacity="1.00" d=" M 0.00 0.00 L 0.16 0.00 C 0.12 0.06 0.04 0.19 0.00 0.25 L 0.00 0.00 Z" />
        <path fill="#3a335d" stroke="#3a335d" stroke-width="0.09375" opacity="1.00" d=" M 72.84 59.28 L 73.15 59.42 C 88.28 68.11 103.22 77.12 118.38 85.77 C 103.22 94.43 88.22 103.36 73.09 112.06 C 67.39 108.11 61.00 105.27 55.29 101.35 C 67.36 94.12 79.51 87.00 91.94 80.39 C 91.95 80.17 91.98 79.73 92.00 79.51 C 82.92 74.67 74.06 69.40 65.29 64.02 C 67.75 62.34 70.53 61.17 72.84 59.28 Z" />
        </g>
        <g id="#140b24ff">
        <path fill="#140b24" stroke="#140b24" stroke-width="0.09375" opacity="1.00" d=" M 2.30 27.65 C 17.29 18.75 32.37 9.97 47.46 1.27 C 47.17 8.13 47.24 15.05 47.36 21.88 C 41.01 25.87 34.45 29.49 27.92 33.17 C 33.99 37.41 40.84 40.64 47.20 44.51 C 47.28 47.57 47.38 50.63 47.17 53.68 C 32.10 45.20 17.42 36.03 2.30 27.65 Z" />
        </g>
        <g id="#10fdddff">
        <path fill="#10fddd" stroke="#10fddd" stroke-width="0.09375" opacity="1.00" d=" M 47.36 21.88 C 55.73 16.31 64.62 11.42 73.14 6.18 C 73.22 19.78 73.09 33.39 73.19 46.99 C 73.30 51.02 72.64 55.15 73.80 59.09 L 73.15 59.42 L 72.84 59.28 C 64.21 54.52 55.50 49.84 47.20 44.51 C 40.84 40.64 33.99 37.41 27.92 33.17 C 34.45 29.49 41.01 25.87 47.36 21.88 Z" />
        </g>
        <g id="#00d2bcff">
        <path fill="#00d2bc" stroke="#00d2bc" stroke-width="0.09375" opacity="1.00" d=" M 73.14 6.18 C 85.27 13.62 97.42 21.04 109.67 28.28 C 112.48 29.99 116.39 31.13 118.28 33.60 C 103.21 41.66 88.86 51.00 73.80 59.09 C 72.64 55.15 73.30 51.02 73.19 46.99 C 73.09 33.39 73.22 19.78 73.14 6.18 Z" />
        </g>
        <g id="#854bd4ff">
        <path fill="#854bd4" stroke="#854bd4" stroke-width="0.09375" opacity="1.00" d=" M 1.35 79.81 C 1.71 62.31 1.14 44.72 1.67 27.28 L 2.30 27.65 C 17.42 36.03 32.10 45.20 47.17 53.68 L 47.19 53.69 C 38.95 58.72 30.26 62.98 22.08 68.12 C 15.61 72.14 8.50 75.20 2.53 79.99 C 2.23 79.94 1.65 79.85 1.35 79.81 Z" />
        </g>
        <g id="#2ad7c8ff">
        <path fill="#2ad7c8" stroke="#2ad7c8" stroke-width="0.09375" opacity="1.00" d=" M 73.80 59.09 C 88.86 51.00 103.21 41.66 118.28 33.60 C 118.26 50.98 118.16 68.39 118.38 85.77 C 103.22 77.12 88.28 68.11 73.15 59.42 L 73.80 59.09 Z" />
        </g>
        <g id="#a25edbff">
        <path fill="#a25edb" stroke="#a25edb" stroke-width="0.09375" opacity="1.00" d=" M 22.08 68.12 C 30.26 62.98 38.95 58.72 47.19 53.69 C 46.33 58.42 46.83 63.24 46.77 68.01 C 46.77 79.03 46.72 90.04 46.71 101.05 C 46.71 102.67 47.24 104.21 47.63 105.77 L 47.73 106.14 C 38.65 101.00 29.66 95.71 20.71 90.36 C 14.75 86.72 8.41 83.75 2.53 79.99 C 8.50 75.20 15.61 72.14 22.08 68.12 Z" />
        </g>
        <g id="#b274dcff">
        <path fill="#b274dc" stroke="#b274dc" stroke-width="0.09375" opacity="1.00" d=" M 47.19 53.69 C 53.14 57.27 59.40 60.31 65.29 64.02 C 74.06 69.40 82.92 74.67 92.00 79.51 C 91.98 79.73 91.95 80.17 91.94 80.39 C 79.51 87.00 67.36 94.12 55.29 101.35 C 52.69 102.74 50.21 104.36 47.63 105.77 C 47.24 104.21 46.71 102.67 46.71 101.05 C 46.72 90.04 46.77 79.03 46.77 68.01 C 46.83 63.24 46.33 58.42 47.19 53.69 Z" />
        </g>
        </svg>