<?xml version="1.0" standalone="no"?>
<!DOCTYPE svg PUBLIC "-//W3C//DTD SVG 20010904//EN"
 "http://www.w3.org/TR/2001/REC-SVG-20010904/DTD/svg10.dtd">
<svg version="1.0" xmlns="http://www.w3.org/2000/svg"
 width="477.000000pt" height="460.000000pt" viewBox="0 0 477.000000 460.000000"
 preserveAspectRatio="xMidYMid meet">

<g transform="translate(0.000000,460.000000) scale(0.100000,-0.100000)"
fill="#000000" stroke="none">
<path d="M22 4053 l3 -546 780 -454 c923 -536 1022 -593 1032 -593 5 0 14 13
21 29 17 39 16 316 -2 330 -7 6 -189 111 -405 235 l-394 225 54 34 c30 18 210
127 401 242 249 149 348 213 352 229 10 41 6 606 -4 606 -6 0 -10 43 -10 105
l0 105 -915 0 -915 -1 2 -546z m1384 297 c-37 -22 -70 -40 -71 -40 -2 0 -33
-18 -69 -40 -36 -22 -70 -40 -75 -40 -5 0 -11 -4 -13 -9 -1 -5 -31 -23 -65
-40 l-63 -31 0 120 0 120 212 0 213 0 -69 -40z m-1246 -730 c0 -5 -5 -10 -11
-10 -5 0 -7 5 -4 10 3 6 8 10 11 10 2 0 4 -4 4 -10z"/>
<path d="M1880 4495 l0 -105 184 0 184 0 16 33 c10 17 30 50 46 72 16 22 29
46 30 53 0 6 5 12 10 12 6 0 10 9 10 20 0 19 -7 20 -240 20 l-240 0 0 -105z"/>
<path d="M2852 2195 c-12 -9 -45 -29 -74 -44 -114 -61 -178 -105 -178 -120 0
-18 19 -29 615 -370 220 -126 415 -237 432 -247 18 -11 33 -22 33 -26 0 -4
-15 -15 -32 -24 -18 -9 -196 -111 -395 -225 -199 -115 -365 -209 -369 -209 -9
0 -246 -137 -400 -231 -62 -37 -145 -84 -185 -104 -110 -55 -131 -80 -91 -112
16 -14 16 -14 0 -9 -17 5 -18 -8 -18 -189 0 -167 2 -195 15 -195 11 0 15 -13
17 -47 l1 -48 7 50 7 50 1 -47 c2 -61 22 -63 22 -3 l0 45 104 0 105 0 4 -47 3
-48 2 48 c2 39 5 47 21 47 16 0 21 -8 24 -47 l3 -48 2 48 2 47 155 0 155 0 0
-45 c0 -41 2 -45 25 -45 23 0 25 4 25 44 0 40 3 45 33 57 17 8 35 13 40 11 4
-1 7 2 7 8 0 11 98 70 117 70 9 0 13 -29 16 -97 l3 -98 2 108 c3 142 22 144
22 2 0 -63 4 -105 10 -105 6 0 10 44 10 113 l0 113 29 17 c16 9 32 17 35 17 3
0 6 -58 6 -130 0 -80 4 -130 10 -130 6 0 10 55 10 144 0 128 2 144 18 150 9 4
38 19 63 34 48 28 118 68 203 117 37 21 50 25 56 15 6 -9 9 -8 14 7 6 18 101
81 113 75 4 -2 10 3 15 12 5 9 14 16 19 16 6 0 27 11 47 25 20 14 42 25 49 25
10 0 13 -70 16 -312 l2 -313 3 322 2 322 54 30 c29 17 56 31 60 31 3 0 6 -128
6 -285 0 -188 3 -285 10 -285 7 0 10 98 10 291 l-1 292 43 28 c24 16 47 29 51
29 5 0 29 14 53 31 25 17 48 29 50 26 3 -3 5 -122 4 -266 0 -173 3 -261 10
-261 7 0 10 93 10 275 0 240 2 275 15 275 14 0 15 -32 15 -252 -1 -139 2 -253
7 -253 4 0 9 117 10 260 l1 260 29 22 c15 13 33 23 40 23 6 0 13 3 15 8 3 7
62 42 72 42 3 0 6 -106 6 -235 0 -157 3 -235 10 -235 8 0 10 79 9 242 l-1 242
68 41 c38 23 94 55 124 71 30 16 60 34 67 41 7 6 18 13 25 16 9 3 10 8 3 14
-5 5 -372 218 -815 474 -443 255 -850 489 -905 521 -107 61 -128 67 -163 43z
m-552 -1765 c14 -11 21 -20 15 -20 -5 0 -21 9 -35 20 -14 11 -20 20 -15 20 6
0 21 -9 35 -20z m112 -63 c40 -24 82 -46 92 -50 10 -4 16 -10 13 -13 -7 -8
-187 90 -187 102 0 8 9 3 82 -39z m133 -77 c3 -5 1 -10 -4 -10 -6 0 -11 5 -11
10 0 6 2 10 4 10 3 0 8 -4 11 -10z m41 -19 c5 -5 29 -20 54 -33 133 -74 203
-118 196 -126 -3 -2 -17 5 -33 15 -15 11 -35 23 -43 26 -8 4 -28 16 -45 27
-29 18 -84 49 -132 74 -13 6 -23 14 -23 19 0 10 14 9 26 -2z"/>
<path d="M3717 523 c-12 -11 -8 -523 3 -523 6 0 10 95 10 265 0 146 -1 265 -3
265 -2 0 -7 -3 -10 -7z"/>
<path d="M3580 165 c0 -103 4 -165 10 -165 6 0 10 62 10 165 0 103 -4 165 -10
165 -6 0 -10 -62 -10 -165z"/>
<path d="M2963 45 c0 -27 2 -38 4 -22 2 15 2 37 0 50 -2 12 -4 0 -4 -28z"/>
</g>
</svg>
